# xmcd
#
# Track frame offsets:
#	150
#	18428
#	35500
#	54264
#	70004
#	87022
#	105513
#	123116
#	137689
#	156285
#	171197
#	194503
#	212589
#	230453
#	245083
#	264372
#	281423
#
# Disc length: 3995 seconds
#
# Revision: 1
# Processed by: cddbd v1.5.2PL0 Copyright (c) Steve Scherf et al.
# Submitted via: audiograbber 1.83.01
#
DISCID=e20f9911
DTITLE=ChartBusters - 5138-02
DYEAR=1900
DGENRE=
TTITLE0=Urban, Keith - Sweet Thing
TTITLE1=Keith, Toby - God Love Her
TTITLE2=Womack, Lee Ann - Solitary Thinkin'
TTITLE3=Vassar, Phil - Prayer Of A Common Man
TTITLE4=Atkins, Rodney - It's America
TTITLE5=Swift, Taylor - White Horse
TTITLE6=Randy Rogers Band - In My Arms Instead
TTITLE7=Jackson, Alan - Sissy's Song
TTITLE8=McBride, Martina - Ride
TTITLE9=Bentley, Dierks - Sideways
TTITLE10=Wynonna - Sing
TTITLE11=Morgan, Craig - God Must Really Love Me
TTITLE12=Simpson, Jessica - Pray Out Loud
TTITLE13=Chesney, Kenny - Down The Road
TTITLE14=McGraw, Tim - Nothin' To Die For
TTITLE15=Caitlin and Will - Address In The Stars
TTITLE16=Rascal Flatts - Here
EXTD=
EXTT0=
EXTT1=
EXTT2=
EXTT3=
EXTT4=
EXTT5=
EXTT6=
EXTT7=
EXTT8=
EXTT9=
EXTT10=
EXTT11=
EXTT12=
EXTT13=
EXTT14=
EXTT15=
EXTT16=
PLAYORDER=
